<?xml version="1.0" encoding="UTF-8"?>
<svg id="Layer_1" data-name="Layer 1" xmlns="http://www.w3.org/2000/svg" viewBox="0 0 222.07 188.27">
  <defs>
    <style>
      .cls-1 {
        fill: #fcdfdb;
      }

      .cls-2 {
        fill: #e9133d;
      }
    </style>
  </defs>
  <g id="Layer_7" data-name="Layer 7">
    <g>
      <g>
        <path class="cls-2" d="M117.4,140.1c-6.5.9-12.9,1-19.8,0-6,11-14.5,18.1-27.5,18.2s-6.4,2.5-7.4,5.9c-.4,1.3-1.9,2.1-3.1,2.2s-2.6-.9-3.6-2c-5.7-6-6.8-14.1-3-21.4s.9-5.5-.5-8c-1-1.8-3.5-3.7-6.1-3.9-13.5-1.3-13.4-16.9-11.5-27.4,2.5-14.1,6.9-27.5,12.6-40.5,10.6-24,31.1-50.3,59.8-36.6,26.2-12.7,46,8.8,56.9,30.6,7.4,14.9,12.6,30.7,15.6,47.1,1.8,10.1,1.6,25.4-11.4,26.7-2.7.3-5.1,1.9-6.2,3.8-1.4,2.3-1.9,5.6-.6,8,3.8,7.4,2.8,15.5-3,21.6-.9.9-2,1.9-3.3,1.9s-2.8-.8-3.2-2c-1.1-3.8-4.1-6.2-8-6.2-12.1,0-21.2-7.2-26.8-18.1l.1.1ZM139.9,80.4c-9.8-4-16.8-12.9-17.6-24.2-3.1,4.2-1.2,15.9,0,20.6s-.4,1.6-.8,1.8-1.3,0-1.7-.2c-6.5-4.4-10.7-8.5-12.3-16.8-1.6,7.6-5.4,12.2-12,16.5-.6.4-1.4.6-1.8.4s-1.1-1.4-1-1.9c1.4-5.4,3-15.9,0-20.5-.9,11.6-7.9,20.5-18.4,24.5s.8-7.3-1.8-13c-3.7,6.5-5.7,13.6-6.4,20.9-.4,4.3.3,8.1,1.1,12.2.8,4.1,1.2,8.1,2.3,12.2,2.2,7.9,7.5,14.1,15.1,17.3,14.8,6.3,31.8,6.2,46.5-.3,7.6-3.4,13.1-9.7,14.6-17.8l2.2-11.5c.7-4,1.5-7.8,1.1-11.9-.7-7.3-2.7-14.3-6.4-21-2.9,6.4,4,15.4-2.6,12.6l-.1.1ZM63.7,110.7c1-5.1,0-9.9-1.8-14.5-1.2-3.2-3.7-8.7-7.7-7.8s-7.5,13-3.2,21c1.7,3.2,5.5,4.8,8.9,4.9s3.4-1.7,3.8-3.7v.1ZM154.8,114.4c3.6,0,7.5-1.6,9.2-4.8,4.5-8.4,1.1-20.6-3.6-21.1s-5.9,4.6-7.1,7.6c-1.8,4.8-3,9.7-1.9,14.8.3,1.6,1.3,3.6,3.5,3.6l-.1-.1Z"/>
        <path class="cls-2" d="M137.7,91.2c-.7-3.1-2.8-5.9-5.7-7.2s-6.1-1.1-8.3,1.2-2,3.6-2.3,5.7,1,1.9,1.9,1.9,1.8-.8,1.9-1.9,0-.4,0,0v-.2c0-.2,0-.4.1-.5,0-.4.2-.7.3-1s-.1.2,0-.1.1-.3.2-.4.1-.2.2-.4,0-.1.1-.2c.2-.2,0,0,0,.1,0-.1.4-.5.5-.6.3-.3-.2,0,0,0s.2-.2.3-.2.2-.1.3-.2c.4-.2-.3,0,0,0s.5-.1.7-.2c.4,0-.4,0,0,0h.4c.2,0,.6.1.8,0,0,0-.5,0-.2,0s.1,0,.2,0h.4c.3,0,.5.2.8.3s-.4-.2-.1,0,.1,0,.2,0,.2.1.4.2c.3.1.5.3.7.5.4.3-.1-.1,0,0s.2.2.3.2c.2.2.5.4.7.7s.2.3.3.4c-.3-.3,0,0,0,.1.2.3.4.6.5.9s.2.3.2.5c.1.3,0,0,0,0,0,.1,0,.2.1.3.1.4.2.8.3,1.1.2,1,1.4,1.6,2.3,1.3s1.6-1.3,1.3-2.3h.2Z"/>
        <path class="cls-2" d="M100,91.2c-.7-3.1-2.8-5.9-5.7-7.2s-6.1-1.1-8.3,1.2-2,3.6-2.3,5.7,1,1.9,1.9,1.9,1.8-.8,1.9-1.9,0-.4,0,0v-.2c0-.2,0-.4.1-.5,0-.4.2-.7.3-1s-.1.2,0-.1.1-.3.2-.4.1-.2.2-.4,0-.1.1-.2c.2-.2,0,0,0,.1,0-.1.4-.5.5-.6.3-.3-.2,0,0,0s.2-.2.3-.2.2-.1.3-.2c.4-.2-.3,0,0,0s.5-.1.7-.2c.4,0-.4,0,0,0h.4c.2,0,.6.1.8,0,0,0-.5,0-.2,0s.1,0,.2,0h.4c.3,0,.5.2.8.3s-.4-.2-.1,0,.1,0,.2,0,.2.1.4.2c.3.1.5.3.7.5.4.3-.1-.1,0,0s.2.2.3.2c.2.2.5.4.7.7s.2.3.3.4c-.3-.3,0,0,0,.1.2.3.4.6.5.9s.2.3.2.5c.1.3,0,0,0,0,0,.1,0,.2.1.3.1.4.2.8.3,1.1.2,1,1.4,1.6,2.3,1.3s1.6-1.3,1.3-2.3h.2Z"/>
        <path class="cls-2" d="M111.1,95.3c.4,1.5.8,3,1.1,4.5s.3,1.5.5,2.3.2,1.2.1,1.8-.3.6-.5.9c-.4.5-.6.6-1.2.9-1,.5-2.5.7-3.8.8s-1.9.8-1.9,1.9.9,2,1.9,1.9c1.9-.2,3.8-.4,5.5-1.2s2.8-2,3.5-3.6.2-3.8-.2-5.6-.8-3.7-1.3-5.5-1.4-1.6-2.3-1.3-1.6,1.3-1.3,2.3h0l-.1-.1Z"/>
        <path class="cls-2" d="M98.2,118.6c1.1,2.8,2.9,5.3,5.9,6.3s5.3.1,7.2-1.7,2-2.9,2.5-4.6-.3-2.1-1.3-2.3-2,.3-2.3,1.3-.1.4-.2.6-.3.7-.1.3c-.1.3-.3.6-.5.9s-.2.3-.3.5c0,0-.1.1-.2.2q.2-.2,0,0c-.2.2-.4.4-.6.6,0,0-.1.1-.2.2.2-.2.3-.2,0,0-.1,0-.3.2-.4.3s-.3.1-.4.2c-.3.2.4-.1,0,0s-.7.3-.9.2c.3,0,.4,0,.2,0h-1c.3,0,.4,0,.2,0h-.2c-.3,0-.5-.2-.8-.3-.1,0,0,0,.2,0,0,0-.1,0-.2-.1-.1,0-.3-.1-.4-.2s-.3-.2-.4-.3c-.3-.2.3.3,0,0s-.5-.4-.7-.7-.2-.3-.4-.4c.3.4,0,0,0-.1-.2-.3-.4-.6-.6-1s-.2-.4-.3-.6q0-.2,0,0c0-.1,0-.2-.1-.3-.3-.9-1.3-1.7-2.3-1.3s-1.7,1.3-1.3,2.3h-.1Z"/>
      </g>
      <path class="cls-2" d="M53.3,98.2c0,2.5,1,4.8,2.7,6.6s2,.7,2.7,0,.7-1.9,0-2.7-.3-.4-.5-.6l.3.4c-.4-.5-.8-1.1-1-1.8l.2.5c-.3-.7-.5-1.3-.6-2.1v.5-.9c0-1-.9-1.9-1.9-1.9s-1.9.8-1.9,1.9h0v.1Z"/>
      <path class="cls-2" d="M157.2,99.4v1.9c0,.7,0-.1,0-.2v.2c0,.2,0,.3-.1.5,0,.3-.2.6-.3.9s0,.1,0,.2c0,.2,0,0,0-.1,0,.1-.1.3-.2.4-.1.3-.3.6-.5.8s-.2.3-.3.4c-.1.2,0,0,0-.1,0,0,0,.1-.1.2-.2.3-.4.5-.7.7-.7.7-.7,2,0,2.7s1.9.7,2.7,0c2.2-2.1,3.5-5.4,3.2-8.4s-.2-1-.6-1.3-.9-.6-1.3-.6c-.9,0-2,.8-1.9,1.9h0l.1-.1Z"/>
    </g>
  </g>
  <g id="Layer_6" data-name="Layer 6">
    <circle class="cls-1" cx="133.5" cy="109.6" r="6.1"/>
  </g>
  <g id="Layer_5" data-name="Layer 5">
    <circle class="cls-1" cx="84.6" cy="108.3" r="6.1"/>
  </g>
  <g id="Layer_4" data-name="Layer 4">
    <g>
      <path class="cls-2" d="M26.8,39.1c-10.6,1.5-11.9,2.7-13.4,13.4-1.5-10.6-2.7-11.9-13.4-13.4,10.6-1.5,11.9-2.7,13.4-13.4,1.5,10.6,2.7,11.9,13.4,13.4Z"/>
      <path class="cls-2" d="M62,30.2c-10.6,1.5-11.9,2.7-13.4,13.4-1.5-10.6-2.7-11.9-13.4-13.4,10.6-1.5,11.9-2.7,13.4-13.4,1.5,10.6,2.7,11.9,13.4,13.4Z"/>
      <path class="cls-2" d="M43.6,13.4c-10.6,1.5-11.9,2.7-13.4,13.4-1.5-10.6-2.7-11.9-13.4-13.4,10.6-1.5,11.9-2.7,13.4-13.4,1.5,10.6,2.7,11.9,13.4,13.4Z"/>
    </g>
  </g>
  <g id="Layer_3" data-name="Layer 3">
    <g id="kMhaKY">
      <path class="cls-2" d="M199.6,170.8c.3,1.1,1.1,4.1,1.8,4.9s1.2,1.3,2,1.6c3.2,1.2,4.6,4.8,3.1,7.8s-5.2,4.1-8.1,2.3c-2.9-1.8-3.5-5.7-1.4-8.4s1.1-1.7,1.4-2.7,0-1.5,0-2.2l-.5-1.9c-.8-3-1.7-6-2.9-8.9l-26.8-18.6h.9l10.7,5.5,12.5,6.4-4.7-11.7-4.7-11.6v-.9l15.5,27.4c2.4,1.2,4.9,2.2,7.3,3.2l2.2.8c.8.2,1.6.4,2.4.3s2-.6,2.9-1.2c2.8-1.9,6.6-.9,8.2,2,1.6,3,.2,6.7-2.9,7.9-3.2,1.2-6.6-.6-7.5-3.9s-.8-1.5-1.4-2.1c-1.1-1.1-8.2-3.6-10.1-3.5-.6.9-.9,1.9-.8,2.9.1,1.5.4,3,.8,4.5l.1.1ZM196.3,160.8c-.5.2-.6.7-.5,1.1s.7.6,1.1.4.7-.7.5-1.1-.6-.7-1.1-.5v.1ZM216.2,163c-2.6.2-4.5,2.5-4.2,5,.2,2.5,2.4,4.4,5,4.2s4.4-2.4,4.2-5c-.2-2.5-2.4-4.4-4.9-4.2h-.1ZM200.8,178c-2.6.4-4.3,2.8-3.9,5.3.4,2.5,2.7,4.2,5.2,3.8,2.5-.3,4.3-2.7,3.9-5.2s-2.6-4.3-5.2-4v.1Z"/>
    </g>
  </g>
</svg>