<?xml version="1.0" encoding="UTF-8"?>
<svg id="Layer_1" data-name="Layer 1" xmlns="http://www.w3.org/2000/svg" viewBox="0 0 353.6 80.6">
  <defs>
    <style>
      .cls-1 {
        fill: #f4a69d;
      }

      .cls-2 {
        fill: #efbdbb;
      }

      .cls-3 {
        fill: #ef9595;
      }

      .cls-4 {
        fill: #f4c1bd;
      }

      .cls-5 {
        fill: #e9133d;
      }
    </style>
  </defs>
  <g id="Layer_16" data-name="Layer 16">
    <path class="cls-5" d="M24.4,61.2c0,.3,0,.5-.3.8-.6.9-1.4,1.8-2,2.8-.4,1.2-1.3,1.8-2.4,2.3-1.3.5-2.5,1-3.9,1.6-.5,0-1.1,0-1.7.2-1.5.5-3.1.5-4.6.5h-1.6c-1.4-.5-2.9-1-4.4-1.5-.8-1.4-2.5-2.2-3.3-3.8,0-.5-.2-.9-.2-1.4v-1.4c0-.7,0-1.5.3-2.2.2-.5.2-1,.2-1.5v-22.3c0-5.9,0-2.3.5-3.5v-2.2c.2-1.6,0-3.3.5-4.9.2-.7,0-1.5.2-2.2v-4.5c.5-2,.5-4.1.5-6.2,0-.5,0-1.1.3-1.5.3-.8.3-1.6.4-2.5.2-.7.5-1.5.5-2.2v-.3c0-.4,0-.8.3-1.2.2-.5.5-1,.5-1.2.6-.8,1.4-1,2-1.3.9.2,1.8.4,2.6.5.6.4,1.1.8,1.3,1.5.4,1.1.6,2.2,1.1,3.2.2.6.4,1.2.4,1.7s0,.9-.3,1.4c-.2.6-.4,1.2-.4,1.8,0,.8,0,1.6-.5,2.5-.2.5,0,1.1-.2,1.5v5.6c0,1,0,1.9-.4,2.8-.2.5-.2,1-.2,1.5v4.4c0,1.3,0,2.5-.5,3.7v1.9c0,4.4-.2,8.6-.2,13v9c.3.7.5,1.2,1.1,1.4h.5c.5,0,1,0,1.4-.3,1.7-.7,3.5-1.3,5.1-2.2.5,0,1-.2,1.5-.2,1.4,0,2.6.5,3.8,1,.3.4.5.6.6,1.1.3.7.7,1.5,1.1,2.3l.4.5Z"/>
  </g>
  <g id="Layer_15" data-name="Layer 15">
    <path class="cls-3" d="M67.7,19.7c0,.6,0,1-.2,1.6-.2,2.1-.3,3.2-.5,5.3v7.1c0,1.2,0,1.9-.2,3.1s-.5,1.9-.7,3.1c-.3,1.3-.5,2-.8,3.3-.4,1.5-.5,2.5-.7,4-.3,1.5-.4,2.3-.7,3.6-.7,2.5-1.9,6-2.2,6.6-1.3,2.3-2.5,4.6-4.1,6.6-.6.7-1.2,1.5-1.9,2.4-.4.2-.9.5-1.4.8-.5,0-.8.2-1.3.2h-1.6c-.2,0-.4,0-.5-.2-.4,0-.6-.3-.9-.4-1.7-.8-3.3-1.8-4.6-3.2-.5-.5-1-1.1-1.5-1.5-1.5-1.4-2.3-2.8-3.5-4.8-.9-1.5-1.3-2.4-1.9-4-.4-1.1-.5-1.8-.6-3-.4-1.9-.5-3-.8-4.9s-.3-3.1-.5-5v-6.9c-.2-1.5-.5-2.5-.5-4v-5.1c0-3,0-5.6.2-9.4,0-.6.2-.9.3-1.5,0-.5,0-.7.2-1.2.3-1.3.5-2,.6-3.4,0-.7,0-1.1.2-1.8.3-.7.4-1.3.9-1.8s1-.9,1.7-1.1c.5,0,.9-.2,1.4-.2s.7,0,1.2.2.7.6.8,1.2c.2.6.2,1.2.2,1.7v1.9c0,1.8.4,2.9.4,4.7s-.4,1.7-.4,2.8v9.3c0,2.2,0,.4,0,.6.2,1.8.4,2.8.5,4.6,0,.5,0,.8.2,1.3.2,1.3.3,2.1.4,3.4v2.5c0,1.5.3,2.3.4,3.7,0,1.5,0,2.3.3,3.7.3,1.7.5,2.6,1,4.3,1.4,4.1,2.6,4.6,3.9,4.6h.2c1.7,0,3.5-2.1,5.4-6.5.5-1.2.5-1.9.7-3.1.2-.9.3-1.5.5-2.5s.2-1.5.4-2.5c0-.4,0-.5.2-.9.2-.8.2-1.4.4-2.2.2-1.1.3-1.6.5-2.7,0-.7.2-1.2.2-1.9v-4.6c0-.8.2-1.4.3-2.2,0-.6.2-.9.2-1.5v-4.3c0-1,0-2,.2-3.3.2-1.6.6-2.5,1.1-4.2.3-1,.4-1.7.9-2.6.6-.9,1.1-1.5,2.1-2,1-.6,1.7-.8,2.4-.8s1.2.3,1.5.7c.8,1.1,1,2.6,1,4.5s-.2,4-.2,6.1v1.5l-.8.2Z"/>
  </g>
  <g id="Layer_14" data-name="Layer 14">
    <path class="cls-2" d="M137.7,76.9v1c0,.5-.2.9-.5,1.2-1,.8-1.7,1.1-2.9,1.5h-.3c-.4,0-.5-.2-.9-.2-3.9,0-4.3-1-5.6-3.1-.5-.8-.5-1.5-.8-2.5-.2-2.7-.2-5.6-.3-8.4v-1c0-.5,0-1-.2-1.5-.2-.4-.2-.8-.2-1.3v-26.6c0-.9,0-1.7-.4-2.5,0-1.2-.2-2.4-.2-3.5s-.4-2.7-.8-4h-.5c-.6.5-.7,1.4-1.1,1.9-.2,1.4-.7,2.6-1.3,3.9-.6,1.7-1.2,3.5-1.8,5.3-.5,1.8-1,3.6-1.5,5.5,0,.5-.3,1-.4,1.5-.6,2-1.2,4-1.6,6.1-.5,1.9-.9,3.8-1.5,5.7-.2.7-.3,1.4-.4,2.1-.2.6-.5,1.2-.5,1.8v2c0,.6,0,.7-.3,1.2-.5,1-1.4,1.3-2.5,1.5h-.8c-.8,0-1.5-.3-2.5-.4h-.9c-.4,0-.6,0-1-.3-1.2-.7-1.8-1.3-2.5-2.5-.5-.8-.3-1.8-.5-2.5-.3-.8-.4-1.6-.5-2.5,0-1-.5-1.9-.5-2.9v-.5c0-1-.5-2-.7-3.1-.2-1-.5-2-.8-3-.4-1.2-.7-2.4-1-3.5,0-.9-.5-1.6-.6-2.5-1.2-4-2.4-8-3.8-11.9-.3-.9-.9-1.6-1.4-2.4h-.3c-.4,0-.5.4-.6.6-.5,1.8-.5,3.4-.9,5.6-.2.7-.2,1.2-.3,1.9,0,.6,0,.9-.2,1.5-.3,1.8-.5,2.8-.6,4.6v7.2c-.2,2.6-.3,4.6-.4,6.8-.2,3.1-.3,6.1-.3,9.2v3.5c0,1,0,2,.5,3,.2.4.2.8.2,1.3,0,.9.2,1.8.5,2.7v.8c-.6,1.4-1.7,1.9-3,1.9s-1.2,0-1.8-.3c-2.3-.6-4.6-2.1-5.4-2.8-.3-.6-.7-1.3-.8-1.9-.2-1.3-.7-2.5-.7-3.7v-3.8c0-6.6.6-13.5,1.1-21.9,0-.8.2-1.4.3-2.2.2-1.5.3-2.3.5-3.7,0-.7,0-1.1.2-1.8,0-1.2.3-1.9.5-3.1v-.6c0-1.5,0-2.3.4-3.7.2-1.5.4-2.3.7-3.6.8-3.5,1.5-6.1,2.3-9.1.2-1,.6-2,1.5-2.9.5-.4,1.3-.8,1.8-1.3.6,0,1.3-.2,1.8-.2h1.1c.5.4,1.1.6,1.5,1,.5,0,1.1.2,1.7.2,1.8.9,3.3,2.5,4.2,4.4,0,.2.2.4.3.5.5,1.2.8,2.4,1.5,3.5.7,1.2,1,2.5,1.7,3.6.6,1.1,1.1,2.3,1.5,3.5,1.5,3.2,2.8,6.5,3.8,9.9,0,0,0,.2.2.2s.5,0,.6.2c.4-.3.5-.7.5-1.1,1.1-3.4,2.3-6.7,3.5-10,.2-.5.5-1,.5-1.5.5-1.8,1.3-3.5,2-5.3,1-2.2,1.9-4.4,3.1-6.6.5-.9.6-1.7,1.2-2.8.5-1.4.6-2.2,1.5-3.4.4-.5.8-.5,1.5-.7.9-.4,1.5-.5,2.5-.6h.4c.2,0,.3,0,.5.2,1,.7,1.3,1.5,2.3,2.2h.7c.2,0,.3,0,.5.2.9,1,1.3,1.9,1.9,2.9.2.4.3.7.5,1.1.5,1.3.8,2.6,1.5,3.8,0,.3.3.5.3.9,0,1,.6,2,.7,3,.2.8.5,1.6.5,2.5.2.8.2,1.6.5,2.5v.3c0,1.3.2,2.5.3,3.7.5,1.2.4,2.5.5,3.7,0,1.5,0,2.9.5,4.4.2.5.2,1.3.2,1.8v22c0,5.1,0,1.9.3,2.8.2.5.2,1,.2,1.5v7.6c0,2.6,0,2.1.5,3.1v.7l-.2.5Z"/>
  </g>
  <g id="Layer_13" data-name="Layer 13">
    <path class="cls-5" d="M160.8,29.6c.3.6.5,1.4.5,2.1s-.2,1.5-.4,2.2c-.4,1.1-.3,2.1-.5,3.4,0,.8,0,1.4-.3,2.2,0,.7-.2,1.1-.3,1.8,0,1-.2,1.5-.4,2.5v.4c0,1.5-.2,2.3-.4,3.7,0,1.5-.4,2.3-.5,3.7v15.2c-.3,1-.4,1.8-1.3,2.4-.4.3-.8.4-1.2.4-.5,0-1-.2-1.6-.4-.7-.3-.7-1-1.5-1.5h-1.4c-.6-.3-1.1-.4-1.6-.8-.4-.4-.5-.7-.6-1.3-.3-1.4-.2-2.2-.3-3.5v-9.7c0-1.4.3-2.1.4-3.4,0-.6.2-.9.2-1.5.3-1.9.4-3.1.5-5v-1.5c.2-1,.3-1.5.4-2.5,0-.5,0-.7.2-1.2.2-1,.2-1.7.5-2.5.2-.3.2-.6.2-1,.4-2.9,1-5.8,1.8-8.8.5-1.5,1.2-2.5,2-4,0-.2.2-.3.4-.3h1.9c.5,0,1.2,0,1.8.5.8.4.7,1.2.9,2,0,.4.2.7.2,1v3.9c0,.9,0,1.3.3,1.9l.1-.4ZM164.6,9.1v.6c-.5,1.4-2,1.5-3.5,1.8h-.7c-.6,0-1.2-.2-1.8-.5-1.1-.4-1.8-.7-2.5-1.6-.2-.3-.2-.5-.2-.7,0-.4,0-.7.4-1,.9-1.3,1.8-2.1,3-2.6.3-.3.7-.4,1.1-.4h.5c1,.5,1.7.6,2.5,1.6.5.7,1.4,1.7,1.4,2.6l-.2.2Z"/>
  </g>
  <g id="Layer_12" data-name="Layer 12">
    <path class="cls-4" d="M221.9,6.9v.9c-.8,1.3-.6,2.6-1,4.3,0,.7,0,1.1-.2,1.8,0,.8,0,1.4-.2,2.2-.2,1.5-.4,2.2-.7,3.6,0,.5-.3.7-.4,1.3-.2,1.2-.3,1.8-.5,3,0,.8,0,1.4-.2,2.2-.2,1.6-.3,2.5-.5,4.1,0,.8,0,1.4-.2,2.2,0,.6-.2.9-.3,1.5-.2,1.2-.3,1.8-.5,3-.2,1.4-.2,2.1-.4,3.5,0,.7,0,1.1-.2,1.8-.2,1.2-.3,1.9-.5,3.1v4.7c0,.7,0,1.1-.3,1.8-.5,2.3-1,3.8-1.5,5.7,0,1.5-.8,2.9-.8,4.4v.3l-.8,3c-.2.7-.3,1.5-.5,2.1,0,.9-.7,1.4-1.5,1.4h-.3c-.3,0-.5-.2-.9-.4-.4,0-.6.5-.9.7-.2.3-.5.5-.6.6-.3.2-.5.3-.9.3h-.3c-.8-.3-1.6-.5-2.5-.9-.6-.5-1.5-1.3-2-1.9-1.4-2.2-2.1-4.5-3-6.7-.9-2.1-1.7-4.3-2.5-6.5-.7-2-1.5-4-2.4-6.1-1-2.8-2-5.6-2.8-8.6-.6-2.5-1.5-5-1.9-7.6-.5-1.2-.6-2.5-1.5-3.5-.5,0-.7.3-.8.6,0,.4-.2.6-.2,1-.2,1.2-.4,2.2-.5,3.6v1.3c-.2,1.5-.3,2.3-.5,3.7v4.4c0,1.5-.4,2.5-.5,4,0,1.5,0,2.5-.2,4.1,0,.3,0,.4-.2.6-.2,1.1-.2,1.6-.4,2.7,0,.7-.2,1.2-.4,1.9,0,.2-.2.4-.2.5-.3,2.6-.4,4.2-.7,6.8-.2,1.5,0,2.5-.8,3.8-.3.3-.6.5-1.1.9-.3.5-.5,1.1-.8,1.5-.7.6-1.5,1.1-2.3,1.2-.8,0-1.5-.5-2.2-1.1-.8-1.2-.9-2.5-1.4-3.8-.2-.5-.2-.9-.2-1.5v-5.4c0-.8.3-1.3.4-2.1,0-.8,0-1.4.2-2.2.2-1.5.3-2.3.5-3.7,0-.6.2-.9.2-1.5v-1.5c.2-1.7.3-2.6.5-4.4.4-2.6.5-4.2.9-6.8.2-1,.3-1.5.4-2.5,0-1.3,0-1.9.2-3.2,0-1.1.3-1.6.5-2.7.2-1,.4-1.5.5-2.5,0-.7,0-1.1.2-1.8.2-1.5.3-2.3.5-3.7v-9.8c0-3.3-.2-1.2-.2-1.7s0-.5.2-.8c.5-1.2,1.5-1.8,2.4-2.3.4-.2.7-.2,1.2-.2s1.2,0,1.7.2c.8,0,1.6.5,2.5.6.3.5.6.8.9,1.3s.5.9.8,1.3c.2.3.4.5.5.8,2.4,3.1,4.1,6.6,5.8,10,.5,1,.9,2.1,1.3,3.2,1.2,3,2.3,6,3.4,9.1.7,2.4,1.3,4.8,2.1,7.2.2.7.4,1.5.6,2.1.3.7.5,1.5.7,2.4.3,1.2.8,2.4,1.5,3.4.4,0,.7,0,.8-.5,0-.5,0-1,.2-1.5,0-.6,0-1.3.3-1.9,0-.5.2-.9.2-1.5v-2.3c0-1.5,0-2.5.3-4,.2-1.5.5-2.3.7-3.7.2-.8.2-1.3.2-2.1,0-1.3,0-1.9.2-3.2.2-1.6.4-2.6.5-4.3,0-.7.2-1.2.3-1.9,0-.8.2-1.3.3-2.1.2-1.1.4-1.7.5-2.8v-.9c.3-1.9.5-3.3.6-5,0-.8.6-1.5.6-2.4v-2.2c.5-.8.7-1.5,1.2-2.3,1-1.7,2.6-2.5,4.6-2.6.8,0,1.6.2,2.4.2,1.4.7,1.9,1.8,2.5,3.1v3.4l.3.2Z"/>
  </g>
  <g id="Layer_11" data-name="Layer 11">
    <path class="cls-1" d="M268.6,37.1c0,2.9-.5,5.6-1,7.5-1,4.4-3,6-6.3,9-1.5,1.4-2.6,2-4.3,3.2-1.2.8-1.8,1.5-3.1,2.1s-2,.6-3.3,1.1c-.5.2-.6.5-1.1.5-1.3,0-2.3.2-3.3.2s-1.6,0-2.6-.2c-1,0-1.5-.4-2.5-.8s-1.4-.8-2.1-1.4c-.6-.5-1.3-.9-2.2-1.1-.7-.2-1.5-.7-2.3-1.1-.9-.5-1.4-1.3-2-2.3-.6-.9-.9-1.5-1.1-2.6s-.2-1-.2-1.5c0-.7,0-1.4.2-2.3,0-.6.2-.9.3-1.5,0-.5,0-.7.2-1.2.4-2,.4-3.3,1.1-5.2,1.2-3.4,2.2-5.6,3.6-8.3.5-.9,1.2-1.7,1.8-2.5,1.8-2.1,3.6-4.1,5.6-5.9.5-.3.9-.5,1.4-.8,3-1.7,5-3.6,9.1-3.6h1.2c.4,0,.5,0,.7.2,1.9.9,3.1,1.9,4.6,3,1,.7,1.9,1.7,2.5,2.7.6.9,1.5,1.8,1.6,3,0,0,0,.2.2.3.5,1,1,2,1.5,3.1s.8,2.2,1.4,3.5c0,1,.2,2,.2,3l.2-.1ZM258.5,36.6v-2c-.5-1.5-.9-2.8-1.6-4.2-.4-.5-.6-1.1-1.1-1.5-.8-.9-1.7-1.7-2.8-2.4-.3,0-.6-.2-.9-.2s-.5,0-.6.2c-2.7,2.5-2.6,2.5-4.6,5-.9,1.2-1.6,2.5-2.5,3.6-.5.8-.9,1.6-1.2,2.5-.5,1.4-.8,2.7-1,4.2-.2,1.8-.6,3.5-.6,5.3,0,.5-.4.8-.4,1.2v1.6c.3.3.5.6.7.8.5.3,1.1.5,1.5.6.8,0,1.6.2,2.5.2h1.4c2.6-.9,4.6-2.5,6.6-3.9,1.3-.9,2.3-1.7,3.4-3.3.6-.9.5-1.6.7-2.7.2-1.3.2-2.3.5-3.4.2-.5.2-1.1.2-1.6h-.2Z"/>
  </g>
  <g id="Layer_10" data-name="Layer 10">
    <path class="cls-5" d="M308.2,32.6v.2c0,.6-.3,1-.4,1.6h0v.3h0c-.4,1.7-.5,2.9-1,4.3s-.9,2.7-1.3,4.2c-.4,1.4-.9,2.5-1.5,4-.3.9-.5,1.4-.7,2.3-.5,1.8-.7,2.8-1.2,4.7-.4,1.5-.5,2.4-.9,3.9,0,.3,0,.4-.2.6-1,2.2-1.3,3.9-2.5,5.6-.2.3-.3.5-.5.8h-.3c-1.3-.2-2.5-.5-3.4-.5s-1.3-.3-1.8-.5c-.9-.4-1.8-.8-2.2-1.9,0-.5-.2-.8-.2-1.1,0-.9.4-1.6.5-2.7.3-1.5.6-2.3,1-3.8,0-.4,0-.6.2-1,1.1-3.3,1.7-5.1,2.9-8.4.5-1.4.9-2.4,1.3-3.5.4-1.2.3-1.1.6-2.2,0-.3.2-.5.2-.6v-.7c0-.3-.3-.6-.5-.9-1.3-.2-2.4,0-3.6-.2h-1c-.7,0-1.4,0-2-.3-.2,0-.4-.2-.6-.2-.7,0-1.5,0-2.3-.2-.3,0-.5-.2-.6-.2-1.7-.6-3.5-1.9-5-2.8-1.1-.5-1.5-1.2-2.2-2.2-.5-.9-.7-1.5-.8-2.5v-.2c0-.8.4-1.5.4-2.2,0-.8,0-1.5.4-2.4.2-1.1.5-2.3.8-3.5.5-1.6,1.3-3.3,1.9-5,.2-.5.5-1,.7-1.5.7-1.1,1.5-2.2,2.3-3.3,1.5-2.3,4.5-3.1,6.9-4.7.3-.2.6-.3.9-.3h.7c.6.2,1,.5,1.5,1,.3.3.4.5.4.9v.4c0,.5,0,.9-.2,1.5-.2.8-.3,1.3-.6,2-.8,1.4-1.5,2-2.3,3.2-.6,1.3-1.5,2.5-1.7,3.8-.3,1.2-.7,2.2-1.1,3.2-.3.9-.5,1.7-.7,2.5-.2.6-.5,1.2-.5,1.8s0,.4,0,.5c.2.6.9.7,1.5,1h1c1.5,0,2.5-.5,4.2-.8,1.5-.5,3-.6,4.5-.6s3.4.3,5.1,1c1.4.5,2.6,1.4,3.4,2.6.5.8.7,1.4.8,2.4l-.3.6Z"/>
  </g>
  <g id="Layer_9" data-name="Layer 9">
    <path class="cls-5" d="M353.2,17.7v6.6c0,1.2-.2,2.3-.5,3.5-.2.6-.2,1.3-.2,1.8v1.3c0,.7,0,1.5-.4,2.2,0,.2-.2.4-.2.5,0,1.8-.5,3.5-.7,5.3,0,1.2-.6,2.3-.6,3.5v.3c-.6,1.7-.5,3.7-1.1,5.5,0,1.4-.5,2.7-.8,4-.4,1.3-.5,2.6-1.1,3.9-.3,1.9-.9,3.8-1.4,5.7-.5,1.9-.9,3.9-1.6,5.8-.3.2-.5.5-.8.8-.2,0-.4.2-.6.4h-1.5c-.8.5-1.1.5-1.6.5h-1c-.7-.5-1.3-1.2-2.1-1.2h-.3c-.5-.8-1.1-1.5-1.5-2.2-.2-.5-.3-1-.3-1.5s0-1.3.3-1.8c.5-1.8.8-3.6,1.4-5.5.3-1.2.6-2.3.9-3.4s.5-2.2.7-3.3c.2-.6.4-1.3.5-1.8v-.2c0-.4-.2-.7-.5-1h-2.1c-.5,0-1.1,0-1.5-.2-1.3-.4-2.6-.4-3.9-.4h-2.5c-.7.4-.9.8-1.1,1.3-.5,2-1.5,3.9-1.6,6-.6,2.1-.6,4.4-1.6,6.4-.3,1.5-.8,3-.8,4.6-.3.5-.5,1-.7,1.5-.4.6-.9,1-1.5,1h-.9c-.7-.4-1.3-.9-1.8-1.8v-1.5c0-1.5,0-2.9.5-4.4,0-.3,0-.5.2-.9,0-1.5.2-2.9.6-4.3,0-2.5.8-4.7,1.5-7,0-.3.2-.6.3-.9-.2-.3-.4-.5-.6-.7-.5-.4-1-.7-1.6-.8-1.4-.4-2.4-1.3-3.3-2.4-.2-.2-.4-.5-.5-.7,0-.5-.2-1-.2-1.5s0-1.2.4-1.8c.3-.5.4-1,.5-1.5l.3-.3c.3,0,.5-.2.9-.2,1.2.2,2.5,0,3.6.5h3.3c.7-.3,1-.6,1.2-1.2.6-1.5,1.3-3.1,1.9-4.6.3-.7.6-1.5,1-2.3,1.6-2.8,3.1-5.7,5-8.4.7-1,1.3-2.1,1.9-3.2.4-.5.7-1,1.1-1.5,1.3-1.6,2.6-3.3,4-4.7.5-.5.9-1.2,1.4-1.8.7-.9,1.5-1.6,2.6-2.2.8-.4,1.6-.9,2.5-1.4h.9c.3,0,.4.2.5.2.9,1,1.5,2,2.1,3.1.8.8,1.8,1.5,2.5,2.5.6,2.2.9,4.23.9,6.1l-.4-.3ZM343.1,22.3v-1.3c0-.2,0-.4-.2-.5-.2,0-.4,0-.6-.2-.3.3-.6.5-.9.8-.9,1.2-1.7,2.4-2.6,3.5-.4.5-.8,1.2-1.3,1.7l-1.5,1.5c-.6,1.4-1.5,2.5-1.9,3.9-.5,1.5-1.5,2.5-2,3.9,0,.2,0,.4-.2.6v.5c0,.4,0,.6.5.9.7.2,1.5.5,2.3.6h4.8c.2,0,.4,0,.5-.2.6-.3.9-.8,1.2-1.5.2-.9.2-2,.5-3,.2-.6.3-1.4.3-2.1.2-1.5,0-3.2.6-4.6,0-1.2.2-2.3.5-3.4v-1.3.2Z"/>
  </g>
</svg>